<svg xmlns="http://www.w3.org/2000/svg" version="1.1" xmlns:xlink="http://www.w3.org/1999/xlink" xmlns:svgjs="http://svgjs.dev/svgjs" width="1000" height="1125" viewBox="0 0 1000 1125"><g transform="matrix(1,0,0,1,1.7053025658242404e-13,0)"><svg viewBox="0 0 320 360" data-background-color="#ffffff" preserveAspectRatio="xMidYMid meet" height="1125" width="1000" xmlns="http://www.w3.org/2000/svg" xmlns:xlink="http://www.w3.org/1999/xlink"><g id="tight-bounds" transform="matrix(1,0,0,1,0,0)"><svg viewBox="0 0 320 360" height="360" width="320"><g><svg></svg></g><g><svg viewBox="0 0 320 360" height="360" width="320"><g><path d="M20.961 227.22l3.726 4.658-1.863-6.056c-0.466-2.795-3.726 0.466-1.863 1.398M25.153 224.425c1.397 2.329 2.795 4.658 2.795 6.987 0 3.261 2.795 4.658 5.123 5.589-3.261-3.726-5.124-13.974-7.918-12.576M204.017 26.929c7.918 0 15.371-0.932 23.756 0.931 20.495 5.124 37.729 15.371 49.374 29.811l32.606 52.169c1.397 13.042 4.192 27.482 3.726 43.319 3.261 0 2.795-4.658 6.521-5.59-3.726 9.316-5.59 20.961-6.521 34.469-2.329-7.453 0-18.632 0.466-24.687-3.261 5.124-5.124 1.397-5.124-0.932 0.466-3.726-1.397-3.261-2.795-4.658-5.124-4.658-8.384-9.782-12.11-17.7 2.329-6.055 2.795-14.905-4.658-19.563-2.329-1.397-5.124-3.726-6.521-7.453-1.863-5.124-5.124-11.179-4.193-19.097 0.466-2.329-6.987 5.124-11.179 1.863-18.166-12.576-36.332-27.016-58.224-39.127-11.645 0-20.029-4.192-24.221-9.316-3.726-4.658-0.932-10.713 4.658-11.179 3.261 0 6.987-0.932 9.782 0.932 0.466-1.863 2.329-4.192 4.657-4.192M157.904 16.215l0.932 0.466c4.658 0.932 6.987 7.453 12.11 5.124 0 3.261 0.466 6.521-0.466 8.85-1.397 3.726-5.59 3.726-8.85 3.726-31.208-1.863-49.374 11.179-68.471 22.358-5.124 3.261-10.713 5.59-14.906 9.782-20.029 18.632-41.921 35.866-47.045 70.335l-4.192 38.195c-0.466 4.192-5.124 8.384-4.192 13.508l3.26 22.824c-3.261-3.261-5.124 0.932-4.192 2.795 0.466 1.397 2.329 6.055 5.124 1.863 3.726 6.987 7.453 20.495 12.576 26.55 15.837 18.632 36.332 35.4 53.101 52.169 4.192-0.932 7.453-0.932 8.384-3.727 1.397 2.795-1.397 5.59-3.726 6.056 7.453 4.658 15.837 8.85 27.016 9.781 14.44 0.932 27.948 3.261 40.524 6.522 6.521-1.863 13.042-2.795 20.029-3.261 2.329 0 3.726-3.726 6.521-4.658l0.466-4.658c2.795 4.192 2.329-1.397 0.466-4.192 3.261 2.795 4.192 5.124 5.589 6.987 0-1.397 3.726-6.521 3.727-0.466l0.931-6.055c1.397-0.932 1.863 5.124 3.261 0.931 1.397-4.192 4.192-0.932 6.987-2.329-0.932 1.863-0.466 5.59 2.794 3.261l3.727-3.261c2.329 5.59 6.055 3.261 7.918 2.329 20.495-13.042 40.99-28.413 60.553-43.784l-0.466 6.055 2.329-7.453c2.329 2.329 4.192 0.466 5.124-0.931 2.795-4.658 6.521-9.316 12.577-13.508-7.453 20.029-16.303 35.866-27.482 48.908l-4.658 5.59c0 3.261-0.932 7.453-4.658 7.918-1.863 0.466-5.59-0.932-8.384 1.863-1.397 1.863 3.261 5.59-0.466 2.795-3.261-2.329-6.521 0-10.248 0.932-2.795 0.932 1.863 3.726 2.795 5.589 0.932 1.863 1.863 3.726 1.398 6.056l-5.124-5.59c-6.055 3.261-9.782 9.316-14.906 13.974-2.329 1.863-1.397 5.124-1.397 7.918-3.261 0-6.987-0.932-8.85 0.932-1.397 1.863-0.932 4.658-0.932 7.453-4.658-0.466-5.124-7.453-9.315-6.056-4.192 0.932-8.85 1.397-12.577 3.727 2.795 5.59-4.658 2.329-3.726 3.26-6.987-4.192-13.042-7.453-20.495-4.658-15.837-5.124-35.4-2.795-49.84-0.931 0-2.329 0.466-4.658-0.466-5.124-0.932 2.329-3.726 1.397-3.26 1.397-8.85-6.055-17.7-9.782-27.016-14.905-8.384 0.932-16.303-3.261-18.632-5.59-6.521-6.055-13.974-2.795-20.029-4.192-13.042-3.261-17.7-16.769-19.098-26.084-0.932-4.658-4.658-6.521-6.055-6.056-6.055-19.563-15.371-37.263-22.824-55.429-1.863-4.658-1.397-9.316-1.397-14.44 2.329 0.932 4.658 0.466 4.192-2.794-2.329-15.371-7.918-27.016-13.974-38.195 3.261-15.837 3.726-34.469 11.179-48.443 6.521-12.576 18.632-19.098 27.016-29.811 2.795-3.726 2.795-8.85 5.59-12.11 9.316-9.316 18.632-19.098 28.879-27.482 4.658-3.726 10.247 0 17.234-1.397 2.329-8.384 11.645-15.837 20.495-13.508 3.726 0.932 11.179-8.85 13.508-9.782 3.726-1.397 1.863 3.726 1.863 6.987 8.85-6.987 20.961-10.713 32.14-14.906" fill="#f81505" fill-rule="nonzero" stroke="none" stroke-width="1" stroke-linecap="butt" stroke-linejoin="miter" stroke-miterlimit="10" stroke-dasharray="" stroke-dashoffset="0" font-family="none" font-weight="none" font-size="none" text-anchor="none" style="mix-blend-mode: normal" data-fill-palette-color="tertiary"></path></g><g transform="matrix(1,0,0,1,64.00000000000001,93.88371523597655)"><svg viewBox="0 0 191.99999999999997 172.2325695280469" height="172.2325695280469" width="191.99999999999997"><g><svg viewBox="0 0 191.99999999999997 172.2325695280469" height="172.2325695280469" width="191.99999999999997"><g><svg viewBox="0 0 191.99999999999997 172.2325695280469" height="172.2325695280469" width="191.99999999999997"><g><svg viewBox="0 0 191.99999999999997 172.2325695280469" height="172.2325695280469" width="191.99999999999997"><g id="textblocktransform"><svg viewBox="0 0 191.99999999999997 172.2325695280469" height="172.2325695280469" width="191.99999999999997" id="textblock"><g><svg viewBox="0 0 191.99999999999997 130.71986699916872" height="130.71986699916872" width="191.99999999999997"><g transform="matrix(1,0,0,1,0,0)"><svg width="191.99999999999997" viewBox="4.37 -31.38 46.09 31.38" height="130.71986699916872" data-palette-color="#f91707"><path d="M23.22 0L6.32 0Q5.63 0 5.17-0.46L5.17-0.46Q4.37-1.15 4.37-1.9L4.37-1.9 4.37-29.43Q4.37-30.52 5.52-31.15L5.52-31.15Q5.86-31.26 6.21-31.38L6.21-31.38 22.59-31.38Q23.45-31.38 23.85-30.86 24.25-30.34 24.25-29.74 24.25-29.14 23.79-28.62 23.33-28.1 22.59-28.1L22.59-28.1 8.16-28.1 8.16-17.7 21.9-17.7Q22.76-17.7 23.16-17.21 23.56-16.72 23.56-16.09L23.56-16.09Q23.56-15.52 23.1-15.06 22.64-14.6 21.9-14.6L21.9-14.6 8.16-14.6 8.16-3.22 23.22-3.22Q24.02-3.22 24.43-2.7 24.83-2.18 24.83-1.55 24.83-0.92 24.4-0.46 23.97 0 23.22 0L23.22 0ZM31.49-1.9L31.49-29.48Q31.49-30.34 32.07-30.86 32.64-31.38 33.45-31.38L33.45-31.38 48.85-31.38Q49.71-31.38 50.08-30.86 50.46-30.34 50.46-29.74 50.46-29.14 50.08-28.62 49.71-28.1 48.85-28.1L48.85-28.1 35.51-28.1 35.51-17.93 48.33-17.93Q49.19-17.93 49.6-17.41 50-16.9 50-16.29 50-15.69 49.54-15.2 49.08-14.71 48.33-14.71L48.33-14.71 35.51-14.71 35.51-1.9Q35.51-1.03 35.05-0.57L35.05-0.57Q33.56 0.52 32.18-0.46L32.18-0.46Q31.61-0.86 31.49-1.9L31.49-1.9Z" opacity="1" transform="matrix(1,0,0,1,0,0)" fill="#f91707" class="undefined-text-0" data-fill-palette-color="primary" id="text-0"></path></svg></g></svg></g><g transform="matrix(1,0,0,1,0,149.7950328711554)"><svg viewBox="0 0 191.99999999999997 22.437536656891492" height="22.437536656891492" width="191.99999999999997"><g transform="matrix(1,0,0,1,0,0)"><svg width="191.99999999999997" viewBox="2.98 -37.74 332.96999999999997 38.910000000000004" height="22.437536656891492" data-palette-color="#f9f205"><path d="M23.34-36.28L23.83-36.13Q24.41-36.28 24.66-36.25 24.9-36.23 25.15-36.18L25.15-36.18Q25.44-35.99 25.63-35.69L25.63-35.69Q25.63-34.67 25.61-33.67 25.59-32.67 25.59-31.64L25.59-31.64Q25.59-29.79 25.63-27.93 25.68-26.07 25.63-24.22L25.63-24.22Q25.73-23.78 25.68-23.73 25.63-23.68 25.63-23.58L25.63-23.58Q25.63-21.73 25.73-19.92 25.83-18.12 25.83-16.26L25.83-16.26 25.83-9.77Q25.83-7.67 25.95-5.62 26.07-3.56 26.07-1.51L26.07-1.51Q26.07-1.32 25.83-0.98L25.83-0.98Q25.73-0.59 25.54-0.34L25.54-0.34Q25.1-0.29 24.71-0.49L24.71-0.49Q24.51-0.49 24.44-0.37 24.37-0.24 24.22-0.15L24.22-0.15Q23.83-0.15 23.58 0.05 23.34 0.24 23 0.24L23 0.24Q22.71 0.24 22.44 0.17 22.17 0.1 21.83 0.1L21.83 0.1Q21.73 0.1 21.53 0.27 21.34 0.44 21.24 0.49L21.24 0.49Q21 0.49 20.8 0.56 20.61 0.63 20.36 0.63L20.36 0.63Q20.12 0.44 20.14 0.05 20.17-0.34 19.82-0.44L19.82-0.44Q19.82-0.68 19.85-0.98 19.87-1.27 19.87-1.56L19.87-1.56Q19.87-3.47 19.78-5.4 19.68-7.32 19.63-9.23L19.63-9.23Q19.58-10.06 19.6-10.86 19.63-11.67 19.63-12.5L19.63-12.5Q19.63-12.94 19.63-13.38 19.63-13.82 19.53-14.21L19.53-14.21Q19.24-14.26 19.02-14.14 18.8-14.01 18.55-14.01L18.55-14.01Q17.53-13.67 17.19-13.33L17.19-13.33Q16.89-13.33 16.7-13.23 16.5-13.13 16.26-13.04L16.26-13.04Q15.87-12.94 15.5-12.87 15.14-12.79 14.75-12.65L14.75-12.65Q14.5-12.55 14.26-12.45 14.01-12.35 13.77-12.26L13.77-12.26Q13.23-12.06 12.7-11.89 12.16-11.72 11.62-11.52L11.62-11.52Q11.08-11.43 10.69-11.23 10.3-11.04 9.91-10.84L9.91-10.84Q9.57-8.54 9.55-6.47 9.52-4.39 9.67-2.34L9.67-2.34Q9.57-2.05 9.57-1.68 9.57-1.32 9.42-1.07L9.42-1.07Q8.89-0.93 8.72-1.05 8.54-1.17 8.35-1.27L8.35-1.27Q8.15-1.22 8.03-1.07 7.91-0.93 7.81-0.83L7.81-0.83Q7.42-0.83 7.2-0.66 6.98-0.49 6.79-0.39L6.79-0.39Q6.64-0.34 6.49-0.39 6.35-0.44 6.15-0.34L6.15-0.34Q5.66-0.34 5.69-0.46 5.71-0.59 5.57-0.59L5.57-0.59Q5.37-0.59 5.3-0.42 5.22-0.24 5.03-0.15L5.03-0.15Q4.83-0.05 4.59-0.02 4.35 0 4.1 0.1L4.1 0.1Q3.86-0.15 3.86-0.44 3.86-0.73 3.61-0.98L3.61-0.98Q3.52-1.66 3.49-2.32 3.47-2.98 3.32-3.66L3.32-3.66Q3.42-5.03 3.39-5.86 3.37-6.69 3.37-7.57L3.37-7.57Q3.37-8.35 3.32-9.13 3.27-9.91 3.22-10.69L3.22-10.69Q3.13-12.11 3.05-13.57 2.98-15.04 2.98-16.5L2.98-16.5Q2.98-17.72 3.1-18.9 3.22-20.07 3.22-21.29L3.22-21.29Q3.22-22.12 3.25-22.92 3.27-23.73 3.27-24.56L3.27-24.56Q3.27-25.24 3.25-25.9 3.22-26.56 3.22-27.2L3.22-27.2Q3.22-27.93 3.32-28.64 3.42-29.35 3.42-30.03L3.42-30.03Q3.42-30.86 3.32-31.67 3.22-32.47 3.22-33.3L3.22-33.3Q3.22-33.54 3.27-33.76 3.32-33.98 3.32-34.23L3.32-34.23Q3.27-34.77 3.37-34.89 3.47-35.01 3.56-35.21L3.56-35.21Q3.81-35.25 4.1-35.35 4.39-35.45 4.64-35.35L4.64-35.35Q4.93-35.64 5.44-35.64 5.96-35.64 6.2-35.99L6.2-35.99Q6.54-35.94 6.67-35.96 6.79-35.99 6.88-35.99L6.88-35.99Q7.32-35.89 7.35-36.01 7.37-36.13 7.52-36.13L7.52-36.13Q7.76-36.13 8.28-36.11 8.79-36.08 8.98-35.89L8.98-35.89Q9.47-33.3 9.52-30.62 9.57-27.93 9.57-25.29L9.57-25.29Q9.57-24.61 9.62-23.9 9.67-23.19 9.57-22.51L9.57-22.51Q9.57-22.22 9.52-21.95 9.47-21.68 9.47-21.39L9.47-21.39Q9.47-20.56 9.38-19.65 9.28-18.75 9.28-17.92L9.28-17.92Q9.86-17.58 10.28-17.7 10.69-17.82 11.08-17.97L11.08-17.97Q11.57-18.12 11.99-18.29 12.4-18.46 12.84-18.6L12.84-18.6Q13.23-18.8 13.7-18.92 14.16-19.04 14.55-19.14L14.55-19.14Q15.82-19.58 17.04-20.21 18.26-20.85 19.53-21.24L19.53-21.24Q19.43-23.93 19.43-26.59 19.43-29.25 19.43-31.88L19.43-31.88Q19.43-32.62 19.43-33.4 19.43-34.18 19.53-34.91L19.53-34.91Q19.58-35.11 19.65-35.23 19.73-35.35 19.73-35.6L19.73-35.6Q19.87-35.84 20.07-35.94 20.26-36.04 20.36-36.23L20.36-36.23Q20.46-36.13 20.58-36.06 20.7-35.99 20.85-35.94L20.85-35.94Q21.24-36.04 21.31-36.08 21.39-36.13 21.48-36.18L21.48-36.18Q21.73-36.28 22.12-36.28 22.51-36.28 22.75-36.28L22.75-36.28 23.34-36.28ZM55.52-19.38L55.52-19.38Q55.42-19.19 55.32-19.02 55.22-18.85 55.17-18.65L55.17-18.65Q55.37-18.46 55.54-18.24 55.71-18.02 55.71-17.77L55.71-17.77Q55.71-17.58 55.64-17.41 55.56-17.24 55.61-17.09L55.61-17.09Q55.42-16.75 55.2-16.46 54.98-16.16 54.88-15.82L54.88-15.82Q54.69-15.63 54.56-15.43 54.44-15.23 54.34-15.04L54.34-15.04Q54.1-14.94 54.03-14.72 53.95-14.5 53.76-14.36L53.76-14.36Q53.71-14.16 53.27-13.43 52.83-12.7 52.29-11.87 51.76-11.04 51.27-10.25 50.78-9.47 50.58-9.23L50.58-9.23Q50.49-8.98 50.36-8.84 50.24-8.69 50.1-8.5L50.1-8.5Q50-8.35 49.95-8.18 49.9-8.01 49.8-7.91L49.8-7.91Q49.7-7.71 49.58-7.57 49.46-7.42 49.36-7.18L49.36-7.18Q48.87-6.54 48.39-5.66 47.9-4.79 47.46-4.1L47.46-4.1Q47.21-3.71 46.99-3.32 46.77-2.93 46.53-2.54L46.53-2.54Q46.29-2.15 46.04-1.81 45.8-1.46 45.55-1.07L45.55-1.07Q45.16-0.78 44.87-0.37 44.58 0.05 44.19 0.34L44.19 0.34Q43.55 0.34 43.41-0.24L43.41-0.24Q42.77-0.39 42.77-0.24 42.77-0.1 42.77 0L42.77 0Q42.58 0.1 42.5 0.29 42.43 0.49 42.23 0.59L42.23 0.59Q41.84 0.49 41.57 0.27 41.31 0.05 40.82 0.1L40.82 0.1Q40.62-0.2 40.38-0.42 40.13-0.63 39.94-0.88L39.94-0.88Q39.84-1.17 39.67-1.37 39.5-1.56 39.35-1.76L39.35-1.76Q39.21-2 39.06-2.2 38.91-2.39 38.77-2.59L38.77-2.59Q38.43-3.03 38.11-3.44 37.79-3.86 37.55-4.3L37.55-4.3Q37.16-4.88 36.79-5.49 36.42-6.1 36.03-6.69L36.03-6.69Q35.84-6.98 35.64-7.28 35.45-7.57 35.3-7.86L35.3-7.86Q35.2-8.11 35.03-8.45 34.86-8.79 34.62-8.89L34.62-8.89Q34.52-9.28 34.27-9.47 34.03-9.67 33.79-9.96L33.79-9.96Q33.44-10.35 33.15-10.82 32.86-11.28 32.57-11.77L32.57-11.77Q31.59-13.13 30.73-14.45 29.88-15.77 29.05-17.19L29.05-17.19Q29.29-17.97 29.29-18.36 29.29-18.75 29.54-18.99L29.54-18.99Q29.54-19.19 29.64-19.58L29.64-19.58Q30.27-20.65 30.86-21.53L30.86-21.53Q31.39-22.36 31.61-22.9 31.83-23.44 32.08-24.02L32.08-24.02Q32.32-24.17 32.47-24.39 32.61-24.61 32.86-24.8L32.86-24.8Q32.96-25.34 33.3-25.71 33.64-26.07 33.74-26.61L33.74-26.61Q34.18-26.95 34.23-27.39L34.23-27.39Q34.86-27.83 35.01-28.56L35.01-28.56Q35.4-28.96 35.67-29.44 35.94-29.93 36.18-30.47L36.18-30.47Q36.77-30.96 37.11-31.74L37.11-31.74Q37.4-31.93 37.55-32.28 37.69-32.62 37.94-32.86L37.94-32.86Q38.33-33.5 38.55-33.91 38.77-34.33 39.01-34.77L39.01-34.77Q39.35-34.77 39.45-35.01 39.55-35.25 39.84-35.21L39.84-35.21Q39.84-35.64 40.09-35.99L40.09-35.99Q40.18-36.04 40.38-36.11 40.57-36.18 40.57-36.28L40.57-36.28Q40.48-36.87 40.62-36.96 40.77-37.06 40.87-37.16L40.87-37.16Q41.4-37.06 41.6-37.01 41.79-36.96 42.23-36.67L42.23-36.67Q42.72-36.67 42.92-36.47 43.11-36.28 43.36-36.18L43.36-36.18Q43.55-35.99 43.67-35.79 43.8-35.6 44.04-35.5L44.04-35.5Q44.43-34.96 44.87-34.33 45.31-33.69 45.7-33.15L45.7-33.15Q46.24-32.42 46.8-31.76 47.36-31.1 47.85-30.32L47.85-30.32Q48-30.08 48.39-29.47 48.78-28.86 49.27-28.17 49.75-27.49 50.14-26.93 50.53-26.37 50.68-26.27L50.68-26.27Q50.83-26.03 51.32-25.34 51.8-24.66 52.37-23.9 52.93-23.14 53.46-22.46 54-21.78 54.2-21.58L54.2-21.58Q54.73-20.85 55-20.39 55.27-19.92 55.52-19.38ZM44.33-10.21L44.33-10.21Q44.87-10.94 45.16-11.52 45.46-12.11 45.75-12.7L45.75-12.7Q46.24-13.28 46.34-13.53 46.43-13.77 46.58-14.01L46.58-14.01Q46.97-14.6 47.39-15.19 47.8-15.77 48.04-16.46L48.04-16.46Q48.34-16.65 48.48-16.94 48.63-17.24 48.92-17.48L48.92-17.48Q48.63-18.51 48.24-19.07 47.85-19.63 47.46-20.17L47.46-20.17Q47.31-20.41 47.17-20.65 47.02-20.9 46.87-21.14L46.87-21.14Q46.68-21.29 46.56-21.44 46.43-21.58 46.29-21.73L46.29-21.73Q46.19-21.97 45.99-22.36L45.99-22.36Q45.8-22.61 45.6-22.8 45.41-23 45.26-23.29L45.26-23.29Q45.07-23.49 44.77-23.83 44.48-24.17 44.16-24.58 43.85-25 43.6-25.37 43.36-25.73 43.21-25.98L43.21-25.98Q43.11-26.22 43.04-26.39 42.97-26.56 42.87-26.76L42.87-26.76Q42.62-27.1 42.38-27.37 42.14-27.64 41.89-27.98L41.89-27.98Q41.75-27.88 41.62-27.86 41.5-27.83 41.4-27.73L41.4-27.73Q41.06-27.1 40.65-26.56 40.23-26.03 39.84-25.39L39.84-25.39Q39.5-24.8 39.16-24.19 38.82-23.58 38.47-23L38.47-23Q38.23-22.66 38.01-22.34 37.79-22.02 37.55-21.63L37.55-21.63Q37.3-21.29 37.13-20.92 36.96-20.56 36.72-20.21L36.72-20.21Q36.33-19.73 36.08-19.34 35.84-18.95 35.59-18.41L35.59-18.41Q35.74-18.12 36.06-17.6 36.37-17.09 36.72-16.58 37.06-16.06 37.33-15.63 37.6-15.19 37.64-15.04L37.64-15.04Q38.03-14.7 38.28-14.28 38.52-13.87 38.91-13.48L38.91-13.48Q39.11-13.09 39.35-12.79 39.6-12.5 39.84-12.16L39.84-12.16Q40.09-11.82 40.48-11.16 40.87-10.5 41.26-9.81 41.65-9.13 42.04-8.54 42.43-7.96 42.67-7.81L42.67-7.81Q43.16-8.35 43.48-9.01 43.8-9.67 44.33-10.21ZM92.62-0.15L92.62-0.15Q92.38 0.1 92.08 0.15 91.79 0.2 91.5 0.2L91.5 0.2Q90.77 0.54 89.94 0.54L89.94 0.54Q89.4 0.24 89.35 0.34 89.3 0.44 89.16 0.54L89.16 0.54Q88.42 0.88 87.84 0.9 87.25 0.93 86.86 1.17L86.86 1.17Q86.47 0.88 86.45 0.32 86.42-0.24 86.32-0.63L86.32-0.63Q86.08-0.98 85.98-1.49 85.88-2 85.83-2.54 85.79-3.08 85.71-3.59 85.64-4.1 85.44-4.49L85.44-4.49Q85.4-4.74 85.42-4.93 85.44-5.13 85.35-5.37L85.35-5.37Q85.4-6.2 85.3-6.69 85.2-7.18 85.1-7.71L85.1-7.71Q85.05-8.01 85.05-8.37 85.05-8.74 84.76-8.94L84.76-8.94Q84.91-9.62 84.81-9.96 84.71-10.3 84.66-10.6L84.66-10.6Q84.61-10.99 84.61-11.45 84.61-11.91 84.52-12.3L84.52-12.3Q84.22-14.65 83.88-16.99 83.54-19.34 83.25-21.68L83.25-21.68Q82.95-21.44 82.83-20.95 82.71-20.46 82.61-20.07L82.61-20.07Q82.32-19.19 82.08-18.26 81.83-17.33 81.59-16.46L81.59-16.46Q81.49-16.06 81.42-15.55 81.34-15.04 81.2-14.65L81.2-14.65Q80.71-13.23 80.34-12.21 79.98-11.18 79.63-10.11L79.63-10.11Q79.54-9.52 79.44-8.98 79.34-8.45 79.24-7.91L79.24-7.91Q79.19-7.62 79.1-7.08 79-6.54 78.9-6.3L78.9-6.3Q78.8-6.05 78.73-5.96 78.66-5.86 78.71-5.62L78.71-5.62Q78.22-4.88 78.05-4 77.88-3.13 77.44-2.29L77.44-2.29Q77.44-1.71 77-1.27L77-1.27Q76.75-1.22 76.53-1.17 76.31-1.12 76.07-0.98L76.07-0.98Q75.83-1.07 75.51-1.1 75.19-1.12 74.9-1.12L74.9-1.12Q74.65-1.17 74.46-1.29 74.26-1.42 74.02-1.46L74.02-1.46Q73.77-1.76 73.48-1.98 73.19-2.2 72.9-2.44L72.9-2.44Q72.6-3.17 72.36-3.42L72.36-3.42Q72.21-3.96 71.97-4.42 71.72-4.88 71.63-5.47L71.63-5.47Q71.48-6.01 71.26-6.47 71.04-6.93 70.8-7.47L70.8-7.47Q70.7-7.81 70.58-8.13 70.45-8.45 70.31-8.79L70.31-8.79Q70.26-9.18 70.04-9.77 69.82-10.35 69.72-10.79L69.72-10.79Q69.72-10.84 69.55-11.3 69.38-11.77 69.21-12.3 69.04-12.84 68.87-13.28 68.7-13.72 68.65-13.77L68.65-13.77Q68.55-14.01 68.48-14.23 68.4-14.45 68.31-14.75L68.31-14.75Q68.11-15.38 67.82-16.04 67.52-16.7 67.23-17.29L67.23-17.29Q66.99-17.77 66.89-18.24 66.79-18.7 66.65-19.14L66.65-19.14Q66.55-19.38 66.47-19.58 66.4-19.78 66.3-20.02L66.3-20.02Q66.21-20.31 66.11-20.63 66.01-20.95 65.91-21.29L65.91-21.29Q65.67-21.19 65.69-20.87 65.72-20.56 65.67-20.31L65.67-20.31Q65.57-19.78 65.57-19.26 65.57-18.75 65.52-18.21L65.52-18.21Q65.42-17.63 65.33-17.09 65.23-16.55 65.18-16.02L65.18-16.02Q65.18-14.7 65.03-13.38L65.03-13.38Q64.94-12.21 64.79-11.01 64.64-9.81 64.59-8.54L64.59-8.54Q64.59-7.62 64.4-6.71 64.2-5.81 64.3-4.83L64.3-4.83Q64.2-4.64 64.2-4.54 64.2-4.44 64.2-4.25L64.2-4.25Q64.2-4 64.18-3.71 64.16-3.42 64.16-3.17L64.16-3.17Q64.16-2.73 64.25-2.59L64.25-2.59Q64.11-2.15 64.11-1.64 64.11-1.12 64.11-0.63L64.11-0.63Q64.01-0.44 63.98-0.24 63.96-0.05 63.81 0.15L63.81 0.15Q63.86 0.98 63.33 0.98L63.33 0.98Q63.18 0.98 63.01 0.9 62.84 0.83 62.74 0.68L62.74 0.68Q62.2 0.73 62.13 0.44 62.06 0.15 61.81 0.2L61.81 0.2Q61.23 0.44 61.15 0.34 61.08 0.24 60.83 0.29L60.83 0.29Q60.44-0.1 60.32-0.05 60.2 0 60.1 0L60.1 0Q59.66-0.15 59.61-0.07 59.57 0 59.42 0L59.42 0Q59.17-0.24 58.76-0.24 58.34-0.24 58.05-0.29L58.05-0.29Q58-0.49 57.98-0.66 57.95-0.83 57.95-1.07L57.95-1.07Q57.95-1.37 57.98-1.64 58-1.9 58-2.2L58-2.2Q58-2.44 57.98-2.71 57.95-2.98 57.95-3.32L57.95-3.32Q57.95-3.66 58-3.98 58.05-4.3 58.05-4.69L58.05-4.69Q58.05-4.83 58-4.96 57.95-5.08 57.95-5.27L57.95-5.27Q58.25-5.91 58.22-6.27 58.2-6.64 58.25-6.98L58.25-6.98Q58.34-7.81 58.42-8.62 58.49-9.42 58.59-10.25L58.59-10.25Q58.59-11.62 58.66-12.52 58.74-13.43 58.88-14.36L58.88-14.36Q58.98-14.79 59.05-15.19 59.13-15.58 59.22-16.02L59.22-16.02Q59.32-16.75 59.35-17.55 59.37-18.36 59.47-19.14L59.47-19.14Q59.57-20.36 59.71-21.56 59.86-22.75 59.96-23.93L59.96-23.93Q60.05-24.85 60.18-25.76 60.3-26.66 60.3-27.49L60.3-27.49Q60.3-27.93 60.42-28.61 60.54-29.3 60.59-29.79L60.59-29.79Q60.69-30.96 60.76-32.08 60.83-33.2 60.83-34.33L60.83-34.33 60.83-34.86Q60.83-34.96 60.93-35.06 61.03-35.16 61.03-35.4L61.03-35.4Q61.03-35.84 61.25-36.01 61.47-36.18 61.62-36.57L61.62-36.57Q61.86-36.57 62.18-36.52 62.5-36.47 62.64-36.23L62.64-36.23Q62.98-36.33 63.33-36.33 63.67-36.33 63.91-36.57L63.91-36.57Q64.2-36.57 64.35-36.43 64.5-36.28 64.74-36.18L64.74-36.18Q64.94-36.28 65.13-36.35 65.33-36.43 65.52-36.52L65.52-36.52Q65.67-36.43 65.74-36.3 65.82-36.18 65.96-36.13L65.96-36.13Q66.69-36.33 66.94-36.18L66.94-36.18Q67.04-35.99 67.06-35.79 67.08-35.6 67.13-35.4L67.13-35.4Q67.62-34.91 67.77-34.3 67.91-33.69 68.31-33.2L68.31-33.2Q68.4-32.91 68.53-32.62 68.65-32.32 68.75-31.93L68.75-31.93 68.89-31.35Q69.09-30.86 69.38-30.18L69.38-30.18Q69.62-29.25 69.82-28.27 70.01-27.29 70.45-26.46L70.45-26.46Q70.5-26.17 70.62-25.76 70.75-25.34 70.84-25.05L70.84-25.05Q71.19-24.22 71.55-23.41 71.92-22.61 72.21-21.68L72.21-21.68Q72.5-20.75 72.72-19.78 72.94-18.8 73.29-17.87L73.29-17.87Q73.58-16.99 73.73-16.6 73.87-16.21 74.12-15.82L74.12-15.82Q74.12-15.67 74.19-15.33 74.26-14.99 74.41-14.62 74.56-14.26 74.7-13.94 74.85-13.62 75-13.57L75-13.57Q75.14-13.67 75.17-13.87 75.19-14.06 75.34-14.21L75.34-14.21Q75.39-14.75 75.51-15.53 75.63-16.31 75.87-16.8L75.87-16.8Q75.87-17.04 76-17.7 76.12-18.36 76.31-19.12 76.51-19.87 76.68-20.51 76.85-21.14 77-21.29L77-21.29Q77.09-21.92 77.17-22.07 77.24-22.22 77.34-22.31L77.34-22.31Q77.39-22.71 77.53-23.05 77.68-23.39 77.73-23.78L77.73-23.78Q77.83-24.61 77.97-25.15 78.12-25.68 78.36-26.46L78.36-26.46Q78.56-27.15 78.73-27.86 78.9-28.56 79.15-29.25L79.15-29.25Q79.73-31.1 80.2-32.54 80.66-33.98 81.34-35.35L81.34-35.35Q81.49-35.79 81.59-35.89 81.68-35.99 81.78-36.08L81.78-36.08Q82.17-36.23 82.59-36.23 83-36.23 83.44-36.18L83.44-36.18Q83.93-36.38 84.17-36.62L84.17-36.62Q84.37-36.38 84.76-36.38L84.76-36.38Q85.25-36.38 85.44-36.67L85.44-36.67Q85.64-36.57 85.76-36.62 85.88-36.67 86.13-36.57L86.13-36.57Q86.23-36.67 86.37-36.79 86.52-36.91 86.66-36.91L86.66-36.91Q87.06-36.43 87.28-36.16 87.5-35.89 87.59-35.55L87.59-35.55Q87.74-35.11 87.76-34.59 87.79-34.08 88.03-33.64L88.03-33.64Q87.98-33.01 88.11-31.71 88.23-30.42 88.4-28.98 88.57-27.54 88.76-26.32 88.96-25.1 89.11-24.8L89.11-24.8Q89.06-24.17 89.16-23.73 89.25-23.29 89.25-22.85L89.25-22.85Q89.25-22.71 89.3-22.24 89.35-21.78 89.4-21.26 89.45-20.75 89.52-20.29 89.59-19.82 89.64-19.63L89.64-19.63Q89.64-18.75 89.94-18.26L89.94-18.26Q90.18-17.04 90.35-15.82 90.52-14.6 90.67-13.33L90.67-13.33Q90.77-12.7 90.79-12.11 90.82-11.52 90.91-10.89L90.91-10.89Q90.96-10.64 91.04-10.4 91.11-10.16 91.16-9.91L91.16-9.91Q91.25-9.42 91.3-8.98 91.35-8.54 91.45-8.11L91.45-8.11Q91.5-7.86 91.6-7.59 91.69-7.32 91.6-7.03L91.6-7.03Q91.69-6.69 91.67-6.3 91.65-5.91 91.84-5.62L91.84-5.62Q91.84-4.59 91.99-3.81L91.99-3.81Q92.04-3.22 92.28-2.64L92.28-2.64Q92.38-2.05 92.45-1.42 92.52-0.78 92.62-0.15ZM104.24-12.79L104.24-12.79Q104.34-12.55 104.95-11.77 105.56-10.99 106.34-10.06 107.12-9.13 107.83-8.28 108.54-7.42 108.83-7.03L108.83-7.03Q109.37-6.35 109.88-5.69 110.39-5.03 110.83-4.3L110.83-4.3 111.71-2.83Q112.1-2.34 112.42-2 112.74-1.66 112.93-1.07L112.93-1.07Q113.03-0.68 113.03-0.54L113.03-0.54Q113.03-0.2 112.79-0.05L112.79-0.05Q112.39-0.05 112.37 0.07 112.35 0.2 112.15 0.29L112.15 0.29Q111.96 0.39 111.54 0.42 111.13 0.44 110.88 0.44L110.88 0.44Q110.44 0.44 109.78 0.42 109.12 0.39 108.73 0.54L108.73 0.54Q108.64 0.59 108.44 0.68 108.24 0.78 108.15 0.78L108.15 0.78Q107.76 0.78 107.59 0.66 107.41 0.54 107.12 0.49L107.12 0.49Q106.73 0.05 106.46-0.42 106.19-0.88 105.85-1.37L105.85-1.37Q105.51-1.71 105.17-1.98 104.83-2.25 104.58-2.59L104.58-2.59Q103.85-3.66 103.07-4.69 102.29-5.71 101.46-6.69L101.46-6.69Q101.07-7.23 100.63-7.67 100.19-8.11 99.8-8.64L99.8-8.64Q99.41-9.13 99.06-9.69 98.72-10.25 98.38-10.79L98.38-10.79Q98.09-11.23 97.6-11.94 97.11-12.65 96.53-13.35 95.94-14.06 95.35-14.7 94.77-15.33 94.38-15.67L94.38-15.67Q94.33-15.97 94.13-16.14 93.94-16.31 93.69-16.46L93.69-16.46Q93.6-16.7 93.47-16.92 93.35-17.14 93.35-17.38L93.35-17.38Q93.35-17.72 93.5-18.02L93.5-18.02Q93.6-18.21 93.62-18.38 93.64-18.55 93.74-18.75L93.74-18.75Q93.99-19.29 94.4-19.8 94.82-20.31 95.06-20.9L95.06-20.9Q95.16-21.04 95.16-21.22 95.16-21.39 95.26-21.53L95.26-21.53Q95.35-21.92 95.67-22.19 95.99-22.46 96.18-22.8L96.18-22.8Q96.43-23.19 96.65-23.61 96.87-24.02 97.11-24.51L97.11-24.51Q97.84-25.73 98.65-26.88 99.46-28.03 100.29-29.2L100.29-29.2Q100.92-30.18 101.53-31.08 102.14-31.98 102.78-32.91L102.78-32.91Q103.12-33.35 103.51-33.94 103.9-34.52 104.36-35.11 104.83-35.69 105.31-36.18 105.8-36.67 106.29-36.96L106.29-36.96Q107.02-37.01 107.27-36.65 107.51-36.28 108-36.28L108-36.28Q108.64-36.13 108.83-35.89 109.03-35.64 109.27-35.4L109.27-35.4Q109.95-35.4 110.37-35.16 110.78-34.91 111.17-34.42L111.17-34.42Q111.03-33.89 110.73-33.47 110.44-33.06 110.2-32.62L110.2-32.62Q109.81-32.42 109.64-32.08 109.47-31.74 109.12-31.54L109.12-31.54Q108.64-30.71 108.1-29.96 107.56-29.2 107.02-28.47L107.02-28.47Q106.73-28.03 106.41-27.69 106.1-27.34 105.85-26.95L105.85-26.95Q105.75-26.81 105.68-26.64 105.61-26.46 105.51-26.32L105.51-26.32Q104.92-25.39 104.24-24.58 103.56-23.78 102.97-22.8L102.97-22.8Q102.78-22.46 102.65-22.09 102.53-21.73 102.34-21.39L102.34-21.39Q102.14-21.09 101.77-20.61 101.41-20.12 101.07-19.56 100.72-18.99 100.46-18.48 100.19-17.97 100.19-17.63L100.19-17.63Q100.24-17.38 100.8-16.67 101.36-15.97 102.07-15.16 102.78-14.36 103.41-13.65 104.05-12.94 104.24-12.79ZM107.46-21.68L107.46-21.68Q107.81-20.95 108.2-20.41L108.2-20.41Q108.34-20.21 108.54-20.07 108.73-19.92 108.83-19.68L108.83-19.68Q108.93-19.58 109.03-19.26 109.12-18.95 109.22-18.8L109.22-18.8Q109.37-18.41 109.81-17.92 110.25-17.43 110.25-17.04L110.25-17.04Q110.25-16.8 110.15-16.5 110.05-16.21 110-15.97L110-15.97Q109.95-15.67 109.95-15.36 109.95-15.04 109.76-14.79L109.76-14.79Q109.51-14.55 109.22-14.5 108.93-14.45 108.68-14.26L108.68-14.26Q108.59-14.16 108.39-13.92 108.2-13.67 108-13.38 107.81-13.09 107.63-12.82 107.46-12.55 107.46-12.4L107.46-12.4Q106.88-12.35 106.71-12.38 106.54-12.4 106.34-12.35L106.34-12.35Q106.1-12.6 105.83-12.77 105.56-12.94 105.17-13.09L105.17-13.09Q105.07-13.48 104.73-13.99 104.39-14.5 104.14-14.84L104.14-14.84 103.8-15.28Q103.07-16.31 102.46-17.26 101.85-18.21 101.56-19.38L101.56-19.38Q102.48-20.07 103-20.41 103.51-20.75 104.09-21.04 104.68-21.34 105.24-21.61 105.8-21.88 106.29-22.27L106.29-22.27Q106.68-22.27 106.83-22.22 106.97-22.17 107.02-22.12 107.07-22.07 107.15-21.95 107.22-21.83 107.46-21.68ZM156.97-19.38L156.97-19.38Q156.87-19.19 156.77-19.02 156.68-18.85 156.63-18.65L156.63-18.65Q156.82-18.46 156.99-18.24 157.17-18.02 157.17-17.77L157.17-17.77Q157.17-17.58 157.09-17.41 157.02-17.24 157.07-17.09L157.07-17.09Q156.87-16.75 156.65-16.46 156.43-16.16 156.34-15.82L156.34-15.82Q156.14-15.63 156.02-15.43 155.9-15.23 155.8-15.04L155.8-15.04Q155.55-14.94 155.48-14.72 155.41-14.5 155.21-14.36L155.21-14.36Q155.16-14.16 154.72-13.43 154.28-12.7 153.75-11.87 153.21-11.04 152.72-10.25 152.23-9.47 152.04-9.23L152.04-9.23Q151.94-8.98 151.82-8.84 151.7-8.69 151.55-8.5L151.55-8.5Q151.45-8.35 151.4-8.18 151.35-8.01 151.26-7.91L151.26-7.91Q151.16-7.71 151.04-7.57 150.92-7.42 150.82-7.18L150.82-7.18Q150.33-6.54 149.84-5.66 149.35-4.79 148.91-4.1L148.91-4.1Q148.67-3.71 148.45-3.32 148.23-2.93 147.99-2.54L147.99-2.54Q147.74-2.15 147.5-1.81 147.25-1.46 147.01-1.07L147.01-1.07Q146.62-0.78 146.33-0.37 146.03 0.05 145.64 0.34L145.64 0.34Q145.01 0.34 144.86-0.24L144.86-0.24Q144.23-0.39 144.23-0.24 144.23-0.1 144.23 0L144.23 0Q144.03 0.1 143.96 0.29 143.88 0.49 143.69 0.59L143.69 0.59Q143.3 0.49 143.03 0.27 142.76 0.05 142.27 0.1L142.27 0.1Q142.08-0.2 141.83-0.42 141.59-0.63 141.39-0.88L141.39-0.88Q141.3-1.17 141.13-1.37 140.95-1.56 140.81-1.76L140.81-1.76Q140.66-2 140.51-2.2 140.37-2.39 140.22-2.59L140.22-2.59Q139.88-3.03 139.56-3.44 139.25-3.86 139-4.3L139-4.3Q138.61-4.88 138.24-5.49 137.88-6.1 137.49-6.69L137.49-6.69Q137.29-6.98 137.1-7.28 136.9-7.57 136.76-7.86L136.76-7.86Q136.66-8.11 136.49-8.45 136.32-8.79 136.07-8.89L136.07-8.89Q135.97-9.28 135.73-9.47 135.49-9.67 135.24-9.96L135.24-9.96Q134.9-10.35 134.61-10.82 134.31-11.28 134.02-11.77L134.02-11.77Q133.04-13.13 132.19-14.45 131.34-15.77 130.51-17.19L130.51-17.19Q130.75-17.97 130.75-18.36 130.75-18.75 130.99-18.99L130.99-18.99Q130.99-19.19 131.09-19.58L131.09-19.58Q131.73-20.65 132.31-21.53L132.31-21.53Q132.85-22.36 133.07-22.9 133.29-23.44 133.53-24.02L133.53-24.02Q133.78-24.17 133.92-24.39 134.07-24.61 134.31-24.8L134.31-24.8Q134.41-25.34 134.75-25.71 135.09-26.07 135.19-26.61L135.19-26.61Q135.63-26.95 135.68-27.39L135.68-27.39Q136.32-27.83 136.46-28.56L136.46-28.56Q136.85-28.96 137.12-29.44 137.39-29.93 137.63-30.47L137.63-30.47Q138.22-30.96 138.56-31.74L138.56-31.74Q138.85-31.93 139-32.28 139.15-32.62 139.39-32.86L139.39-32.86Q139.78-33.5 140-33.91 140.22-34.33 140.47-34.77L140.47-34.77Q140.81-34.77 140.91-35.01 141-35.25 141.3-35.21L141.3-35.21Q141.3-35.64 141.54-35.99L141.54-35.99Q141.64-36.04 141.83-36.11 142.03-36.18 142.03-36.28L142.03-36.28Q141.93-36.87 142.08-36.96 142.22-37.06 142.32-37.16L142.32-37.16Q142.86-37.06 143.05-37.01 143.25-36.96 143.69-36.67L143.69-36.67Q144.18-36.67 144.37-36.47 144.57-36.28 144.81-36.18L144.81-36.18Q145.01-35.99 145.13-35.79 145.25-35.6 145.5-35.5L145.5-35.5Q145.89-34.96 146.33-34.33 146.76-33.69 147.16-33.15L147.16-33.15Q147.69-32.42 148.25-31.76 148.82-31.1 149.3-30.32L149.3-30.32Q149.45-30.08 149.84-29.47 150.23-28.86 150.72-28.17 151.21-27.49 151.6-26.93 151.99-26.37 152.14-26.27L152.14-26.27Q152.28-26.03 152.77-25.34 153.26-24.66 153.82-23.9 154.38-23.14 154.92-22.46 155.46-21.78 155.65-21.58L155.65-21.58Q156.19-20.85 156.46-20.39 156.73-19.92 156.97-19.38ZM145.79-10.21L145.79-10.21Q146.33-10.94 146.62-11.52 146.91-12.11 147.2-12.7L147.2-12.7Q147.69-13.28 147.79-13.53 147.89-13.77 148.03-14.01L148.03-14.01Q148.43-14.6 148.84-15.19 149.26-15.77 149.5-16.46L149.5-16.46Q149.79-16.65 149.94-16.94 150.09-17.24 150.38-17.48L150.38-17.48Q150.09-18.51 149.69-19.07 149.3-19.63 148.91-20.17L148.91-20.17Q148.77-20.41 148.62-20.65 148.47-20.9 148.33-21.14L148.33-21.14Q148.13-21.29 148.01-21.44 147.89-21.58 147.74-21.73L147.74-21.73Q147.64-21.97 147.45-22.36L147.45-22.36Q147.25-22.61 147.06-22.8 146.86-23 146.72-23.29L146.72-23.29Q146.52-23.49 146.23-23.83 145.93-24.17 145.62-24.58 145.3-25 145.06-25.37 144.81-25.73 144.67-25.98L144.67-25.98Q144.57-26.22 144.49-26.39 144.42-26.56 144.32-26.76L144.32-26.76Q144.08-27.1 143.84-27.37 143.59-27.64 143.35-27.98L143.35-27.98Q143.2-27.88 143.08-27.86 142.96-27.83 142.86-27.73L142.86-27.73Q142.52-27.1 142.1-26.56 141.69-26.03 141.3-25.39L141.3-25.39Q140.95-24.8 140.61-24.19 140.27-23.58 139.93-23L139.93-23Q139.68-22.66 139.47-22.34 139.25-22.02 139-21.63L139-21.63Q138.76-21.29 138.59-20.92 138.42-20.56 138.17-20.21L138.17-20.21Q137.78-19.73 137.54-19.34 137.29-18.95 137.05-18.41L137.05-18.41Q137.19-18.12 137.51-17.6 137.83-17.09 138.17-16.58 138.51-16.06 138.78-15.63 139.05-15.19 139.1-15.04L139.1-15.04Q139.49-14.7 139.73-14.28 139.98-13.87 140.37-13.48L140.37-13.48Q140.56-13.09 140.81-12.79 141.05-12.5 141.3-12.16L141.3-12.16Q141.54-11.82 141.93-11.16 142.32-10.5 142.71-9.81 143.1-9.13 143.49-8.54 143.88-7.96 144.13-7.81L144.13-7.81Q144.62-8.35 144.93-9.01 145.25-9.67 145.79-10.21ZM176.21-35.25L176.21-35.25Q176.6-34.67 176.86-34.06 177.13-33.45 177.13-33.2L177.13-33.2Q177.13-32.86 177.04-32.64 176.94-32.42 176.74-32.13L176.74-32.13Q174.89-31.3 173.01-30.42 171.13-29.54 169.17-28.76L169.17-28.76Q168.69-28.56 168.25-28.37 167.81-28.17 167.27-27.98L167.27-27.98Q167.17-27.88 166.86-27.81 166.54-27.73 166.29-27.73L166.29-27.73Q166.39-26.76 166.42-25.73 166.44-24.71 166.49-23.68L166.49-23.68Q166.49-23.39 166.59-23.12 166.68-22.85 166.68-22.56L166.68-22.56Q166.78-21.63 166.78-20.75 166.78-19.87 166.88-18.95L166.88-18.95Q168.69-19.73 170.47-20.53 172.25-21.34 174.06-22.12L174.06-22.12Q174.35-22.07 174.69-22.02 175.03-21.97 175.33-21.83L175.33-21.83Q175.42-21.73 175.52-21.58 175.62-21.44 175.77-21.34L175.77-21.34Q175.77-21.09 176.08-20.63 176.4-20.17 176.4-19.63L176.4-19.63Q176.4-19.53 176.55-19.31 176.69-19.09 176.74-18.99L176.74-18.99Q176.74-18.51 176.69-18.46L176.69-18.46Q177.04-18.21 177.16-17.82 177.28-17.43 177.28-17.04L177.28-17.04Q176.4-16.06 175.55-15.72 174.69-15.38 173.81-14.99L173.81-14.99Q173.57-14.84 173.28-14.7 172.98-14.55 172.69-14.4L172.69-14.4Q172.3-14.26 171.93-14.14 171.57-14.01 171.18-13.82L171.18-13.82Q170.59-13.48 169.86-13.04 169.13-12.6 168.54-12.5L168.54-12.5Q168.15-12.4 167.88-12.38 167.61-12.35 167.27-12.11L167.27-12.11Q167.22-11.52 167.25-10.96 167.27-10.4 167.27-9.86L167.27-9.86Q167.27-9.28 167.2-8.72 167.12-8.15 167.12-7.57L167.12-7.57Q167.12-6.59 167.03-5.64 166.93-4.69 166.93-3.76L166.93-3.76Q166.93-3.17 166.98-2.61 167.03-2.05 167.03-1.51L167.03-1.51Q167.03-1.22 166.93-0.98 166.83-0.73 166.73-0.49L166.73-0.49Q166.05-0.39 165.9-0.51 165.76-0.63 165.56-0.73L165.56-0.73Q165.32-0.73 165.24-0.54 165.17-0.34 164.93-0.24L164.93-0.24Q164.73-0.29 164.51-0.27 164.29-0.24 164.15-0.34L164.15-0.34Q163.75-0.2 163.44 0 163.12 0.2 162.73 0.29L162.73 0.29Q162 0.2 161.83 0.22 161.65 0.24 161.46 0.29L161.46 0.29Q161.12-0.05 161.14-0.56 161.17-1.07 160.87-1.46L160.87-1.46Q160.87-1.95 160.78-2.08 160.68-2.2 160.68-2.29L160.68-2.29Q160.68-2.44 160.7-2.61 160.73-2.78 160.73-2.98L160.73-2.98Q160.73-3.42 160.68-3.66L160.68-3.66Q160.73-3.96 160.78-4.57 160.82-5.18 160.87-5.83 160.92-6.49 160.92-7.13 160.92-7.76 160.92-8.15L160.92-8.15Q160.92-8.4 161.02-8.57 161.12-8.74 161.12-8.98L161.12-8.98Q161.12-9.38 161.09-9.69 161.07-10.01 161.07-10.35L161.07-10.35Q161.07-11.04 161.09-11.72 161.12-12.4 161.12-13.09L161.12-13.09Q161.12-15.19 160.9-17.21 160.68-19.24 160.68-21.29L160.68-21.29Q160.68-22.41 160.58-23.75 160.48-25.1 160.34-26.22L160.34-26.22Q160.34-26.46 160.26-26.64 160.19-26.81 160.19-27L160.19-27Q160.14-27.59 160.14-28.2 160.14-28.81 160.14-29.44L160.14-29.44Q160.14-29.83 160.14-30.54 160.14-31.25 160.14-32.01 160.14-32.76 160.17-33.45 160.19-34.13 160.24-34.42L160.24-34.42Q160.24-34.47 160.53-34.59 160.82-34.72 160.92-34.72L160.92-34.72Q161.17-34.72 161.31-34.57 161.46-34.42 161.65-34.28L161.65-34.28Q161.85-34.42 162.07-34.42 162.29-34.42 162.53-34.42L162.53-34.42Q163.27-34.57 163.44-34.4 163.61-34.23 163.71-34.23L163.71-34.23Q163.85-34.23 163.95-34.38 164.05-34.52 164.19-34.52L164.19-34.52Q164.58-34.52 164.66-34.33 164.73-34.13 164.93-34.13L164.93-34.13Q165.12-34.13 165.22-34.28 165.32-34.42 165.41-34.42L165.41-34.42Q165.56-34.42 165.71-34.35 165.85-34.28 166-34.28L166-34.28Q166.24-34.28 166.54-34.45 166.83-34.62 167.07-34.72L167.07-34.72Q167.47-34.81 167.78-34.96 168.1-35.11 168.44-35.21L168.44-35.21Q169.17-35.64 169.54-35.77 169.91-35.89 170.3-36.08L170.3-36.08Q171.13-36.47 171.88-36.84 172.64-37.21 173.47-37.55L173.47-37.55Q173.91-37.55 174.06-37.74L174.06-37.74Q174.4-37.6 174.94-37.7L174.94-37.7Q175.52-37.16 175.69-36.87 175.86-36.57 176.11-36.33L176.11-36.33Q176.4-35.94 176.5-35.94L176.5-35.94Q176.5-35.79 176.35-35.6 176.21-35.4 176.21-35.25ZM233.13-0.15L233.13-0.15Q232.89 0.1 232.6 0.15 232.3 0.2 232.01 0.2L232.01 0.2Q231.28 0.54 230.45 0.54L230.45 0.54Q229.91 0.24 229.86 0.34 229.81 0.44 229.67 0.54L229.67 0.54Q228.94 0.88 228.35 0.9 227.76 0.93 227.37 1.17L227.37 1.17Q226.98 0.88 226.96 0.32 226.93-0.24 226.84-0.63L226.84-0.63Q226.59-0.98 226.49-1.49 226.4-2 226.35-2.54 226.3-3.08 226.23-3.59 226.15-4.1 225.96-4.49L225.96-4.49Q225.91-4.74 225.93-4.93 225.96-5.13 225.86-5.37L225.86-5.37Q225.91-6.2 225.81-6.69 225.71-7.18 225.61-7.71L225.61-7.71Q225.57-8.01 225.57-8.37 225.57-8.74 225.27-8.94L225.27-8.94Q225.42-9.62 225.32-9.96 225.22-10.3 225.18-10.6L225.18-10.6Q225.13-10.99 225.13-11.45 225.13-11.91 225.03-12.3L225.03-12.3Q224.74-14.65 224.39-16.99 224.05-19.34 223.76-21.68L223.76-21.68Q223.47-21.44 223.34-20.95 223.22-20.46 223.12-20.07L223.12-20.07Q222.83-19.19 222.59-18.26 222.34-17.33 222.1-16.46L222.1-16.46Q222-16.06 221.93-15.55 221.86-15.04 221.71-14.65L221.71-14.65Q221.22-13.23 220.85-12.21 220.49-11.18 220.15-10.11L220.15-10.11Q220.05-9.52 219.95-8.98 219.85-8.45 219.76-7.91L219.76-7.91Q219.71-7.62 219.61-7.08 219.51-6.54 219.41-6.3L219.41-6.3Q219.32-6.05 219.24-5.96 219.17-5.86 219.22-5.62L219.22-5.62Q218.73-4.88 218.56-4 218.39-3.13 217.95-2.29L217.95-2.29Q217.95-1.71 217.51-1.27L217.51-1.27Q217.27-1.22 217.05-1.17 216.83-1.12 216.58-0.98L216.58-0.98Q216.34-1.07 216.02-1.1 215.7-1.12 215.41-1.12L215.41-1.12Q215.17-1.17 214.97-1.29 214.77-1.42 214.53-1.46L214.53-1.46Q214.29-1.76 213.99-1.98 213.7-2.2 213.41-2.44L213.41-2.44Q213.11-3.17 212.87-3.42L212.87-3.42Q212.72-3.96 212.48-4.42 212.24-4.88 212.14-5.47L212.14-5.47Q211.99-6.01 211.77-6.47 211.55-6.93 211.31-7.47L211.31-7.47Q211.21-7.81 211.09-8.13 210.97-8.45 210.82-8.79L210.82-8.79Q210.77-9.18 210.55-9.77 210.33-10.35 210.23-10.79L210.23-10.79Q210.23-10.84 210.06-11.3 209.89-11.77 209.72-12.3 209.55-12.84 209.38-13.28 209.21-13.72 209.16-13.77L209.16-13.77Q209.06-14.01 208.99-14.23 208.92-14.45 208.82-14.75L208.82-14.75Q208.62-15.38 208.33-16.04 208.04-16.7 207.74-17.29L207.74-17.29Q207.5-17.77 207.4-18.24 207.3-18.7 207.16-19.14L207.16-19.14Q207.06-19.38 206.99-19.58 206.91-19.78 206.82-20.02L206.82-20.02Q206.72-20.31 206.62-20.63 206.52-20.95 206.43-21.29L206.43-21.29Q206.18-21.19 206.21-20.87 206.23-20.56 206.18-20.31L206.18-20.31Q206.08-19.78 206.08-19.26 206.08-18.75 206.03-18.21L206.03-18.21Q205.94-17.63 205.84-17.09 205.74-16.55 205.69-16.02L205.69-16.02Q205.69-14.7 205.55-13.38L205.55-13.38Q205.45-12.21 205.3-11.01 205.16-9.81 205.11-8.54L205.11-8.54Q205.11-7.62 204.91-6.71 204.72-5.81 204.81-4.83L204.81-4.83Q204.72-4.64 204.72-4.54 204.72-4.44 204.72-4.25L204.72-4.25Q204.72-4 204.69-3.71 204.67-3.42 204.67-3.17L204.67-3.17Q204.67-2.73 204.77-2.59L204.77-2.59Q204.62-2.15 204.62-1.64 204.62-1.12 204.62-0.63L204.62-0.63Q204.52-0.44 204.5-0.24 204.47-0.05 204.33 0.15L204.33 0.15Q204.37 0.98 203.84 0.98L203.84 0.98Q203.69 0.98 203.52 0.9 203.35 0.83 203.25 0.68L203.25 0.68Q202.71 0.73 202.64 0.44 202.57 0.15 202.32 0.2L202.32 0.2Q201.74 0.44 201.66 0.34 201.59 0.24 201.35 0.29L201.35 0.29Q200.96-0.1 200.83-0.05 200.71 0 200.61 0L200.61 0Q200.18-0.15 200.13-0.07 200.08 0 199.93 0L199.93 0Q199.69-0.24 199.27-0.24 198.86-0.24 198.56-0.29L198.56-0.29Q198.52-0.49 198.49-0.66 198.47-0.83 198.47-1.07L198.47-1.07Q198.47-1.37 198.49-1.64 198.52-1.9 198.52-2.2L198.52-2.2Q198.52-2.44 198.49-2.71 198.47-2.98 198.47-3.32L198.47-3.32Q198.47-3.66 198.52-3.98 198.56-4.3 198.56-4.69L198.56-4.69Q198.56-4.83 198.52-4.96 198.47-5.08 198.47-5.27L198.47-5.27Q198.76-5.91 198.73-6.27 198.71-6.64 198.76-6.98L198.76-6.98Q198.86-7.81 198.93-8.62 199-9.42 199.1-10.25L199.1-10.25Q199.1-11.62 199.17-12.52 199.25-13.43 199.39-14.36L199.39-14.36Q199.49-14.79 199.56-15.19 199.64-15.58 199.74-16.02L199.74-16.02Q199.83-16.75 199.86-17.55 199.88-18.36 199.98-19.14L199.98-19.14Q200.08-20.36 200.22-21.56 200.37-22.75 200.47-23.93L200.47-23.93Q200.57-24.85 200.69-25.76 200.81-26.66 200.81-27.49L200.81-27.49Q200.81-27.93 200.93-28.61 201.05-29.3 201.1-29.79L201.1-29.79Q201.2-30.96 201.27-32.08 201.35-33.2 201.35-34.33L201.35-34.33 201.35-34.86Q201.35-34.96 201.44-35.06 201.54-35.16 201.54-35.4L201.54-35.4Q201.54-35.84 201.76-36.01 201.98-36.18 202.13-36.57L202.13-36.57Q202.37-36.57 202.69-36.52 203.01-36.47 203.15-36.23L203.15-36.23Q203.5-36.33 203.84-36.33 204.18-36.33 204.42-36.57L204.42-36.57Q204.72-36.57 204.86-36.43 205.01-36.28 205.25-36.18L205.25-36.18Q205.45-36.28 205.64-36.35 205.84-36.43 206.03-36.52L206.03-36.52Q206.18-36.43 206.25-36.3 206.33-36.18 206.47-36.13L206.47-36.13Q207.21-36.33 207.45-36.18L207.45-36.18Q207.55-35.99 207.57-35.79 207.6-35.6 207.65-35.4L207.65-35.4Q208.13-34.91 208.28-34.3 208.43-33.69 208.82-33.2L208.82-33.2Q208.92-32.91 209.04-32.62 209.16-32.32 209.26-31.93L209.26-31.93 209.4-31.35Q209.6-30.86 209.89-30.18L209.89-30.18Q210.14-29.25 210.33-28.27 210.53-27.29 210.97-26.46L210.97-26.46Q211.02-26.17 211.14-25.76 211.26-25.34 211.36-25.05L211.36-25.05Q211.7-24.22 212.06-23.41 212.43-22.61 212.72-21.68L212.72-21.68Q213.02-20.75 213.24-19.78 213.46-18.8 213.8-17.87L213.8-17.87Q214.09-16.99 214.24-16.6 214.38-16.21 214.63-15.82L214.63-15.82Q214.63-15.67 214.7-15.33 214.77-14.99 214.92-14.62 215.07-14.26 215.21-13.94 215.36-13.62 215.51-13.57L215.51-13.57Q215.65-13.67 215.68-13.87 215.7-14.06 215.85-14.21L215.85-14.21Q215.9-14.75 216.02-15.53 216.14-16.31 216.39-16.8L216.39-16.8Q216.39-17.04 216.51-17.7 216.63-18.36 216.83-19.12 217.02-19.87 217.19-20.51 217.36-21.14 217.51-21.29L217.51-21.29Q217.61-21.92 217.68-22.07 217.75-22.22 217.85-22.31L217.85-22.31Q217.9-22.71 218.05-23.05 218.19-23.39 218.24-23.78L218.24-23.78Q218.34-24.61 218.49-25.15 218.63-25.68 218.88-26.46L218.88-26.46Q219.07-27.15 219.24-27.86 219.41-28.56 219.66-29.25L219.66-29.25Q220.24-31.1 220.71-32.54 221.17-33.98 221.86-35.35L221.86-35.35Q222-35.79 222.1-35.89 222.2-35.99 222.29-36.08L222.29-36.08Q222.69-36.23 223.1-36.23 223.52-36.23 223.95-36.18L223.95-36.18Q224.44-36.38 224.69-36.62L224.69-36.62Q224.88-36.38 225.27-36.38L225.27-36.38Q225.76-36.38 225.96-36.67L225.96-36.67Q226.15-36.57 226.27-36.62 226.4-36.67 226.64-36.57L226.64-36.57Q226.74-36.67 226.88-36.79 227.03-36.91 227.18-36.91L227.18-36.91Q227.57-36.43 227.79-36.16 228.01-35.89 228.11-35.55L228.11-35.55Q228.25-35.11 228.28-34.59 228.3-34.08 228.54-33.64L228.54-33.64Q228.5-33.01 228.62-31.71 228.74-30.42 228.91-28.98 229.08-27.54 229.28-26.32 229.47-25.1 229.62-24.8L229.62-24.8Q229.57-24.17 229.67-23.73 229.77-23.29 229.77-22.85L229.77-22.85Q229.77-22.71 229.81-22.24 229.86-21.78 229.91-21.26 229.96-20.75 230.03-20.29 230.11-19.82 230.16-19.63L230.16-19.63Q230.16-18.75 230.45-18.26L230.45-18.26Q230.69-17.04 230.86-15.82 231.03-14.6 231.18-13.33L231.18-13.33Q231.28-12.7 231.3-12.11 231.33-11.52 231.43-10.89L231.43-10.89Q231.47-10.64 231.55-10.4 231.62-10.16 231.67-9.91L231.67-9.91Q231.77-9.42 231.82-8.98 231.86-8.54 231.96-8.11L231.96-8.11Q232.01-7.86 232.11-7.59 232.21-7.32 232.11-7.03L232.11-7.03Q232.21-6.69 232.18-6.3 232.16-5.91 232.35-5.62L232.35-5.62Q232.35-4.59 232.5-3.81L232.5-3.81Q232.55-3.22 232.79-2.64L232.79-2.64Q232.89-2.05 232.96-1.42 233.04-0.78 233.13-0.15ZM261.06-19.38L261.06-19.38Q260.96-19.19 260.87-19.02 260.77-18.85 260.72-18.65L260.72-18.65Q260.92-18.46 261.09-18.24 261.26-18.02 261.26-17.77L261.26-17.77Q261.26-17.58 261.18-17.41 261.11-17.24 261.16-17.09L261.16-17.09Q260.96-16.75 260.74-16.46 260.52-16.16 260.43-15.82L260.43-15.82Q260.23-15.63 260.11-15.43 259.99-15.23 259.89-15.04L259.89-15.04Q259.65-14.94 259.57-14.72 259.5-14.5 259.3-14.36L259.3-14.36Q259.25-14.16 258.82-13.43 258.38-12.7 257.84-11.87 257.3-11.04 256.81-10.25 256.33-9.47 256.13-9.23L256.13-9.23Q256.03-8.98 255.91-8.84 255.79-8.69 255.64-8.5L255.64-8.5Q255.54-8.35 255.5-8.18 255.45-8.01 255.35-7.91L255.35-7.91Q255.25-7.71 255.13-7.57 255.01-7.42 254.91-7.18L254.91-7.18Q254.42-6.54 253.93-5.66 253.44-4.79 253-4.1L253-4.1Q252.76-3.71 252.54-3.32 252.32-2.93 252.08-2.54L252.08-2.54Q251.83-2.15 251.59-1.81 251.34-1.46 251.1-1.07L251.1-1.07Q250.71-0.78 250.42-0.37 250.12 0.05 249.73 0.34L249.73 0.34Q249.1 0.34 248.95-0.24L248.95-0.24Q248.32-0.39 248.32-0.24 248.32-0.1 248.32 0L248.32 0Q248.12 0.1 248.05 0.29 247.98 0.49 247.78 0.59L247.78 0.59Q247.39 0.49 247.12 0.27 246.85 0.05 246.36 0.1L246.36 0.1Q246.17-0.2 245.92-0.42 245.68-0.63 245.49-0.88L245.49-0.88Q245.39-1.17 245.22-1.37 245.05-1.56 244.9-1.76L244.9-1.76Q244.75-2 244.61-2.2 244.46-2.39 244.31-2.59L244.31-2.59Q243.97-3.03 243.65-3.44 243.34-3.86 243.09-4.3L243.09-4.3Q242.7-4.88 242.34-5.49 241.97-6.1 241.58-6.69L241.58-6.69Q241.38-6.98 241.19-7.28 240.99-7.57 240.85-7.86L240.85-7.86Q240.75-8.11 240.58-8.45 240.41-8.79 240.16-8.89L240.16-8.89Q240.07-9.28 239.82-9.47 239.58-9.67 239.33-9.96L239.33-9.96Q238.99-10.35 238.7-10.82 238.41-11.28 238.11-11.77L238.11-11.77Q237.14-13.13 236.28-14.45 235.43-15.77 234.6-17.19L234.6-17.19Q234.84-17.97 234.84-18.36 234.84-18.75 235.08-18.99L235.08-18.99Q235.08-19.19 235.18-19.58L235.18-19.58Q235.82-20.65 236.4-21.53L236.4-21.53Q236.94-22.36 237.16-22.9 237.38-23.44 237.62-24.02L237.62-24.02Q237.87-24.17 238.01-24.39 238.16-24.61 238.41-24.8L238.41-24.8Q238.5-25.34 238.84-25.71 239.19-26.07 239.28-26.61L239.28-26.61Q239.72-26.95 239.77-27.39L239.77-27.39Q240.41-27.83 240.55-28.56L240.55-28.56Q240.94-28.96 241.21-29.44 241.48-29.93 241.73-30.47L241.73-30.47Q242.31-30.96 242.65-31.74L242.65-31.74Q242.95-31.93 243.09-32.28 243.24-32.62 243.48-32.86L243.48-32.86Q243.87-33.5 244.09-33.91 244.31-34.33 244.56-34.77L244.56-34.77Q244.9-34.77 245-35.01 245.09-35.25 245.39-35.21L245.39-35.21Q245.39-35.64 245.63-35.99L245.63-35.99Q245.73-36.04 245.92-36.11 246.12-36.18 246.12-36.28L246.12-36.28Q246.02-36.87 246.17-36.96 246.32-37.06 246.41-37.16L246.41-37.16Q246.95-37.06 247.15-37.01 247.34-36.96 247.78-36.67L247.78-36.67Q248.27-36.67 248.46-36.47 248.66-36.28 248.9-36.18L248.9-36.18Q249.1-35.99 249.22-35.79 249.34-35.6 249.59-35.5L249.59-35.5Q249.98-34.96 250.42-34.33 250.86-33.69 251.25-33.15L251.25-33.15Q251.78-32.42 252.35-31.76 252.91-31.1 253.4-30.32L253.4-30.32Q253.54-30.08 253.93-29.47 254.32-28.86 254.81-28.17 255.3-27.49 255.69-26.93 256.08-26.37 256.23-26.27L256.23-26.27Q256.37-26.03 256.86-25.34 257.35-24.66 257.91-23.9 258.47-23.14 259.01-22.46 259.55-21.78 259.74-21.58L259.74-21.58Q260.28-20.85 260.55-20.39 260.82-19.92 261.06-19.38ZM249.88-10.21L249.88-10.21Q250.42-10.94 250.71-11.52 251-12.11 251.3-12.7L251.3-12.7Q251.78-13.28 251.88-13.53 251.98-13.77 252.13-14.01L252.13-14.01Q252.52-14.6 252.93-15.19 253.35-15.77 253.59-16.46L253.59-16.46Q253.88-16.65 254.03-16.94 254.18-17.24 254.47-17.48L254.47-17.48Q254.18-18.51 253.79-19.07 253.4-19.63 253-20.17L253-20.17Q252.86-20.41 252.71-20.65 252.57-20.9 252.42-21.14L252.42-21.14Q252.22-21.29 252.1-21.44 251.98-21.58 251.83-21.73L251.83-21.73Q251.74-21.97 251.54-22.36L251.54-22.36Q251.34-22.61 251.15-22.8 250.95-23 250.81-23.29L250.81-23.29Q250.61-23.49 250.32-23.83 250.03-24.17 249.71-24.58 249.39-25 249.15-25.37 248.9-25.73 248.76-25.98L248.76-25.98Q248.66-26.22 248.59-26.39 248.51-26.56 248.42-26.76L248.42-26.76Q248.17-27.1 247.93-27.37 247.68-27.64 247.44-27.98L247.44-27.98Q247.29-27.88 247.17-27.86 247.05-27.83 246.95-27.73L246.95-27.73Q246.61-27.1 246.19-26.56 245.78-26.03 245.39-25.39L245.39-25.39Q245.05-24.8 244.7-24.19 244.36-23.58 244.02-23L244.02-23Q243.78-22.66 243.56-22.34 243.34-22.02 243.09-21.63L243.09-21.63Q242.85-21.29 242.68-20.92 242.51-20.56 242.26-20.21L242.26-20.21Q241.87-19.73 241.63-19.34 241.38-18.95 241.14-18.41L241.14-18.41Q241.29-18.12 241.6-17.6 241.92-17.09 242.26-16.58 242.6-16.06 242.87-15.63 243.14-15.19 243.19-15.04L243.19-15.04Q243.58-14.7 243.83-14.28 244.07-13.87 244.46-13.48L244.46-13.48Q244.66-13.09 244.9-12.79 245.14-12.5 245.39-12.16L245.39-12.16Q245.63-11.82 246.02-11.16 246.41-10.5 246.8-9.81 247.19-9.13 247.58-8.54 247.98-7.96 248.22-7.81L248.22-7.81Q248.71-8.35 249.03-9.01 249.34-9.67 249.88-10.21ZM281.18-37.55L281.18-37.55Q281.57-37.55 281.74-37.38 281.91-37.21 282.01-36.96L282.01-36.96Q282.49-37.01 283.01-36.79 283.52-36.57 283.62-36.38L283.62-36.38Q284.01-36.33 284.11-36.18 284.2-36.04 284.4-35.99L284.4-35.99 284.94-36.04Q285.13-35.84 285.69-35.64 286.25-35.45 286.35-35.21L286.35-35.21Q286.25-34.96 286.28-34.69 286.3-34.42 286.3-34.08L286.3-34.08Q286.16-33.35 285.84-32.76 285.52-32.18 285.28-31.64L285.28-31.64Q285.13-31.4 285.06-31.1 284.98-30.81 284.89-30.57L284.89-30.57Q284.79-30.37 284.72-30.2 284.64-30.03 284.55-29.83L284.55-29.83Q284.55-29.59 284.45-29.32 284.35-29.05 284.25-28.81L284.25-28.81Q284.25-28.52 284.2-28.39 284.15-28.27 284.15-28.17L284.15-28.17Q283.23-25.93 282.69-23.97 282.15-22.02 281.62-20.07L281.62-20.07Q281.37-19.48 281.13-18.6 280.88-17.72 280.52-16.53 280.15-15.33 279.74-13.99 279.32-12.65 278.95-11.5 278.59-10.35 278.32-9.55 278.05-8.74 278-8.64L278-8.64Q277.86-7.81 277.56-6.96 277.27-6.1 277.07-5.18L277.07-5.18Q276.83-4.88 276.78-4.52 276.73-4.15 276.54-3.81L276.54-3.81Q276.15-3.86 275.9-3.61L275.9-3.61Q275.85-3.22 275.98-2.88 276.1-2.54 276.1-2.15L276.1-2.15Q275.9-1.61 275.61-1.46 275.32-1.32 275.22-0.98L275.22-0.98Q274.88-1.07 274.71-0.88 274.54-0.68 274.34-0.68L274.34-0.68Q273.75-0.83 273.66-0.49L273.66-0.49Q273.36-0.59 273.27-0.42 273.17-0.24 273.07-0.2L273.07-0.2Q272.68-0.2 272.46-0.02 272.24 0.15 271.95 0.2L271.95 0.2Q271.75 0.1 271.56-0.02 271.36-0.15 271.22-0.29L271.22-0.29Q270.92-1.12 270.68-1.93 270.43-2.73 270.19-3.56L270.19-3.56Q270.09-3.96 269.95-4.3 269.8-4.64 269.7-5.03L269.7-5.03Q269.65-5.27 269.65-5.44 269.65-5.62 269.6-5.81L269.6-5.81Q269.51-6.05 269.41-6.3 269.31-6.54 269.21-6.79L269.21-6.79Q268.82-7.86 268.63-8.98L268.63-8.98Q268.38-9.81 268.16-10.62 267.94-11.43 267.75-12.26L267.75-12.26Q267.6-12.94 267.41-13.7 267.21-14.45 266.92-15.04L266.92-15.04Q266.82-15.82 266.5-16.53 266.19-17.24 266.19-17.97L266.19-17.97Q265.94-18.75 265.77-19.53 265.6-20.31 265.36-21.09L265.36-21.09Q265.26-21.48 265.11-21.83 264.97-22.17 264.87-22.51L264.87-22.51Q264.72-22.95 264.62-23.44 264.53-23.93 264.43-24.41L264.43-24.41Q264.28-24.85 264.14-25.27 263.99-25.68 263.84-26.12L263.84-26.12Q263.6-26.95 263.38-27.76 263.16-28.56 262.91-29.39L262.91-29.39Q262.67-30.32 262.45-31.23 262.23-32.13 261.69-32.96L261.69-32.96Q261.55-33.2 261.47-33.52 261.4-33.84 261.25-34.13L261.25-34.13Q261.35-34.52 261.3-35.03 261.25-35.55 261.45-35.84L261.45-35.84Q261.94-35.84 262.62-35.86 263.31-35.89 263.65-35.79L263.65-35.79Q263.84-35.84 263.96-35.94 264.09-36.04 264.28-36.08L264.28-36.08Q264.57-35.94 264.87-35.94L264.87-35.94Q265.31-35.94 265.55-36.13L265.55-36.13Q266.09-35.89 266.14-36.04 266.19-36.18 266.38-36.18L266.38-36.18Q266.67-36.08 266.82-35.77 266.97-35.45 267.11-35.21L267.11-35.21Q267.65-34.23 267.92-33.28 268.19-32.32 268.48-31.25L268.48-31.25Q268.82-30.27 269.12-29.32 269.41-28.37 269.65-27.39L269.65-27.39Q269.8-26.9 269.9-26.42 269.99-25.93 270.09-25.44L270.09-25.44Q270.24-24.9 270.43-24.44 270.63-23.97 270.82-23.44L270.82-23.44Q270.92-22.9 271.02-22.39 271.12-21.88 271.26-21.34L271.26-21.34Q271.36-20.95 271.51-20.61 271.65-20.26 271.75-19.87L271.75-19.87Q271.85-19.48 271.95-19.07 272.05-18.65 272.14-18.26L272.14-18.26Q272.39-17.29 272.68-16.33 272.97-15.38 273.22-14.4L273.22-14.4Q273.46-14.55 273.51-14.94 273.56-15.33 273.71-15.58L273.71-15.58Q273.8-16.16 274.02-16.85 274.24-17.53 274.44-18.12L274.44-18.12Q274.49-18.36 274.56-18.55 274.63-18.75 274.73-18.99L274.73-18.99Q274.88-19.29 274.93-19.6 274.98-19.92 275.07-20.26L275.07-20.26Q275.27-20.95 275.49-21.63 275.71-22.31 275.9-23L275.9-23Q276.1-23.63 276.24-24.32 276.39-25 276.64-25.59L276.64-25.59Q276.88-26.12 277.05-26.61 277.22-27.1 277.37-27.64L277.37-27.64Q277.51-28.17 277.61-28.71 277.71-29.25 277.95-29.69L277.95-29.69Q278.05-29.93 278.17-30.25 278.3-30.57 278.39-30.86L278.39-30.86Q278.64-31.64 278.83-32.42 279.03-33.2 279.37-33.98L279.37-33.98Q279.61-34.67 279.96-35.3 280.3-35.94 280.54-36.62L280.54-36.62Q280.74-37.11 280.88-37.26 281.03-37.4 281.18-37.55ZM297.04-33.2L297.04-33.2Q297.04-32.76 296.75-32.54 296.46-32.32 296.21-31.98L296.21-31.98Q295.72-31.54 295.36-31.08 294.99-30.62 294.5-30.18L294.5-30.18Q294.31-29.98 293.97-29.66 293.62-29.35 293.26-29.03 292.89-28.71 292.53-28.47 292.16-28.22 291.92-28.22L291.92-28.22Q291.53-28.22 290.91-28.49 290.3-28.76 289.87-28.86L289.87-28.86Q289.52-28.91 289.25-28.93 288.99-28.96 288.74-29.2L288.74-29.2Q287.86-29.39 287.62-29.81 287.37-30.22 287.08-30.66L287.08-30.66Q287.08-30.86 287.23-30.91 287.37-30.96 287.47-31.1L287.47-31.1Q287.96-31.74 288.3-32.15 288.64-32.57 289.08-33.01L289.08-33.01Q289.91-33.74 290.67-34.52 291.43-35.3 292.26-35.99L292.26-35.99Q292.65-36.04 292.84-36.28 293.04-36.52 293.43-36.52L293.43-36.52Q293.82-36.52 294.09-36.28 294.36-36.04 294.58-35.72 294.8-35.4 295.02-35.08 295.24-34.77 295.53-34.62L295.53-34.62Q295.87-34.38 296.46-33.98 297.04-33.59 297.04-33.2ZM290.35-24.12L290.35-24.12Q290.7-23.93 290.87-23.61 291.04-23.29 291.38-23.14L291.38-23.14Q291.67-23 292.01-23 292.36-23 292.6-22.9L292.6-22.9Q292.79-22.8 292.89-22.66 292.99-22.51 293.09-22.36L293.09-22.36Q293.38-22.12 293.99-21.92 294.6-21.73 294.8-21.48L294.8-21.48Q295.14-21.04 295.31-20.36 295.48-19.68 295.58-18.92 295.68-18.16 295.72-17.41 295.77-16.65 295.87-16.11L295.87-16.11Q295.97-14.99 296.12-13.89 296.26-12.79 296.26-11.67L296.26-11.67Q296.26-10.55 296.16-9.38 296.07-8.2 296.07-7.08L296.07-7.08Q296.07-6.49 296.04-5.62 296.02-4.74 295.63-4.25L295.63-4.25Q295.58-4.05 295.58-3.56L295.58-3.56 295.58-2Q295.58-1.71 295.63-1.42 295.68-1.12 295.68-0.78L295.68-0.78Q295.68-0.24 295.38 0L295.38 0Q295.24-0.05 295.07-0.05 294.89-0.05 294.75-0.05L294.75-0.05Q294.21-0.05 293.97 0.15L293.97 0.15Q293.43 0.1 292.94 0.05 292.45 0 291.92 0L291.92 0Q291.09 0 290.11 0.24L290.11 0.24Q289.91-0.24 289.94-0.78 289.96-1.32 289.72-1.76L289.72-1.76Q289.67-1.9 289.65-2.03 289.62-2.15 289.62-2.29L289.62-2.29Q289.77-2.88 289.77-3.1 289.77-3.32 289.77-3.56L289.77-3.56Q289.77-4.25 289.72-4.96 289.67-5.66 289.77-6.35L289.77-6.35Q289.77-6.59 289.84-6.79 289.91-6.98 289.91-7.23L289.91-7.23Q289.91-7.47 289.82-7.57 289.72-7.67 289.72-7.81L289.72-7.81Q289.72-7.96 289.74-8.3 289.77-8.64 289.87-8.74L289.87-8.74Q289.87-9.13 289.89-9.5 289.91-9.86 289.91-10.21L289.91-10.21Q289.91-10.99 289.87-11.77 289.82-12.55 289.82-13.28L289.82-13.28Q289.82-13.62 289.77-13.72 289.72-13.82 289.67-13.87 289.62-13.92 289.52-13.94 289.43-13.96 289.38-14.11L289.38-14.11Q289.57-16.26 289.23-18.41 288.89-20.56 288.89-22.75L288.89-22.75Q288.89-23.1 288.99-23.27 289.08-23.44 289.23-23.54 289.38-23.63 289.5-23.75 289.62-23.88 289.67-24.12L289.67-24.12Q290.06-24.02 290.35-24.12ZM309.2-12.79L309.2-12.79Q309.3-12.55 309.91-11.77 310.52-10.99 311.3-10.06 312.08-9.13 312.79-8.28 313.5-7.42 313.79-7.03L313.79-7.03Q314.33-6.35 314.84-5.69 315.35-5.03 315.79-4.3L315.79-4.3 316.67-2.83Q317.06-2.34 317.38-2 317.69-1.66 317.89-1.07L317.89-1.07Q317.99-0.68 317.99-0.54L317.99-0.54Q317.99-0.2 317.74-0.05L317.74-0.05Q317.35-0.05 317.33 0.07 317.3 0.2 317.11 0.29L317.11 0.29Q316.91 0.39 316.5 0.42 316.08 0.44 315.84 0.44L315.84 0.44Q315.4 0.44 314.74 0.42 314.08 0.39 313.69 0.54L313.69 0.54Q313.59 0.59 313.4 0.68 313.2 0.78 313.1 0.78L313.1 0.78Q312.71 0.78 312.54 0.66 312.37 0.54 312.08 0.49L312.08 0.49Q311.69 0.05 311.42-0.42 311.15-0.88 310.81-1.37L310.81-1.37Q310.47-1.71 310.13-1.98 309.78-2.25 309.54-2.59L309.54-2.59Q308.81-3.66 308.03-4.69 307.25-5.71 306.42-6.69L306.42-6.69Q306.02-7.23 305.59-7.67 305.15-8.11 304.76-8.64L304.76-8.64Q304.36-9.13 304.02-9.69 303.68-10.25 303.34-10.79L303.34-10.79Q303.05-11.23 302.56-11.94 302.07-12.65 301.48-13.35 300.9-14.06 300.31-14.7 299.73-15.33 299.34-15.67L299.34-15.67Q299.29-15.97 299.09-16.14 298.9-16.31 298.65-16.46L298.65-16.46Q298.55-16.7 298.43-16.92 298.31-17.14 298.31-17.38L298.31-17.38Q298.31-17.72 298.46-18.02L298.46-18.02Q298.55-18.21 298.58-18.38 298.6-18.55 298.7-18.75L298.7-18.75Q298.94-19.29 299.36-19.8 299.77-20.31 300.02-20.9L300.02-20.9Q300.12-21.04 300.12-21.22 300.12-21.39 300.21-21.53L300.21-21.53Q300.31-21.92 300.63-22.19 300.95-22.46 301.14-22.8L301.14-22.8Q301.39-23.19 301.61-23.61 301.83-24.02 302.07-24.51L302.07-24.51Q302.8-25.73 303.61-26.88 304.41-28.03 305.24-29.2L305.24-29.2Q305.88-30.18 306.49-31.08 307.1-31.98 307.73-32.91L307.73-32.91Q308.08-33.35 308.47-33.94 308.86-34.52 309.32-35.11 309.78-35.69 310.27-36.18 310.76-36.67 311.25-36.96L311.25-36.96Q311.98-37.01 312.23-36.65 312.47-36.28 312.96-36.28L312.96-36.28Q313.59-36.13 313.79-35.89 313.98-35.64 314.23-35.4L314.23-35.4Q314.91-35.4 315.33-35.16 315.74-34.91 316.13-34.42L316.13-34.42Q315.99-33.89 315.69-33.47 315.4-33.06 315.16-32.62L315.16-32.62Q314.76-32.42 314.59-32.08 314.42-31.74 314.08-31.54L314.08-31.54Q313.59-30.71 313.06-29.96 312.52-29.2 311.98-28.47L311.98-28.47Q311.69-28.03 311.37-27.69 311.05-27.34 310.81-26.95L310.81-26.95Q310.71-26.81 310.64-26.64 310.57-26.46 310.47-26.32L310.47-26.32Q309.88-25.39 309.2-24.58 308.51-23.78 307.93-22.8L307.93-22.8Q307.73-22.46 307.61-22.09 307.49-21.73 307.29-21.39L307.29-21.39Q307.1-21.09 306.73-20.61 306.37-20.12 306.02-19.56 305.68-18.99 305.41-18.48 305.15-17.97 305.15-17.63L305.15-17.63Q305.19-17.38 305.76-16.67 306.32-15.97 307.03-15.16 307.73-14.36 308.37-13.65 309-12.94 309.2-12.79ZM312.42-21.68L312.42-21.68Q312.76-20.95 313.15-20.41L313.15-20.41Q313.3-20.21 313.5-20.07 313.69-19.92 313.79-19.68L313.79-19.68Q313.89-19.58 313.98-19.26 314.08-18.95 314.18-18.8L314.18-18.8Q314.33-18.41 314.76-17.92 315.2-17.43 315.2-17.04L315.2-17.04Q315.2-16.8 315.11-16.5 315.01-16.21 314.96-15.97L314.96-15.97Q314.91-15.67 314.91-15.36 314.91-15.04 314.72-14.79L314.72-14.79Q314.47-14.55 314.18-14.5 313.89-14.45 313.64-14.26L313.64-14.26Q313.54-14.16 313.35-13.92 313.15-13.67 312.96-13.38 312.76-13.09 312.59-12.82 312.42-12.55 312.42-12.4L312.42-12.4Q311.84-12.35 311.66-12.38 311.49-12.4 311.3-12.35L311.3-12.35Q311.05-12.6 310.79-12.77 310.52-12.94 310.13-13.09L310.13-13.09Q310.03-13.48 309.69-13.99 309.35-14.5 309.1-14.84L309.1-14.84 308.76-15.28Q308.03-16.31 307.42-17.26 306.81-18.21 306.51-19.38L306.51-19.38Q307.44-20.07 307.95-20.41 308.47-20.75 309.05-21.04 309.64-21.34 310.2-21.61 310.76-21.88 311.25-22.27L311.25-22.27Q311.64-22.27 311.79-22.22 311.93-22.17 311.98-22.12 312.03-22.07 312.1-21.95 312.18-21.83 312.42-21.68ZM330.24-35.99L330.24-35.99Q330.34-35.79 330.46-35.72 330.58-35.64 330.63-35.4L330.63-35.4Q330.97-35.16 331.17-35.03 331.36-34.91 331.41-34.62L331.41-34.62Q331.85-34.28 331.93-34.18 332-34.08 332.05-33.94L332.05-33.94Q332.29-33.74 332.51-33.59 332.73-33.45 332.83-33.15L332.83-33.15Q333.22-32.81 333.32-32.62 333.41-32.42 333.46-32.18L333.46-32.18Q333.27-31.84 332.68-31.25 332.1-30.66 331.36-30 330.63-29.35 329.95-28.74 329.26-28.13 328.87-27.78L328.87-27.78Q328.78-27.59 328.63-27.44 328.48-27.29 328.39-27.1L328.39-27.1Q328.09-26.86 327.85-26.59 327.6-26.32 327.26-26.17L327.26-26.17Q326.77-25.49 325.9-24.83 325.02-24.17 324.72-23.54L324.72-23.54Q324.77-23.39 324.94-23.24 325.11-23.1 325.21-23L325.21-23Q325.6-22.61 326.14-22.29 326.68-21.97 327.07-21.58L327.07-21.58Q327.46-21.24 327.85-20.92 328.24-20.61 328.63-20.26L328.63-20.26Q328.82-20.07 329.12-19.68L329.12-19.68Q329.61-19.29 330.07-18.97 330.53-18.65 330.97-18.26L330.97-18.26Q331.9-17.48 332.78-16.67 333.66-15.87 334.64-15.09L334.64-15.09 335.03-14.65Q335.03-14.26 335.25-13.75 335.47-13.23 335.66-12.89L335.66-12.89Q335.56-12.4 335.69-12.28 335.81-12.16 335.91-12.06L335.91-12.06Q335.86-11.13 335.95-10.84L335.95-10.84Q335.12-10.11 334.42-9.5 333.71-8.89 333.17-8.3L333.17-8.3Q332.73-7.76 332.27-7.35 331.8-6.93 331.27-6.45L331.27-6.45Q330.97-6.05 330.78-5.91L330.78-5.91Q330.44-5.57 330.09-5.37L330.09-5.37Q329.51-4.83 328.95-4.35 328.39-3.86 327.85-3.37L327.85-3.37Q327.46-3.03 327.12-2.71 326.77-2.39 326.43-2L326.43-2Q326.14-1.71 325.77-1.32 325.41-0.93 325.02-0.68L325.02-0.68Q324.87-0.39 324.63-0.17 324.38 0.05 324.19 0.29L324.19 0.29Q323.84 0.49 323.55 0.68 323.26 0.88 322.87 1.07L322.87 1.07Q322.48 0.78 322.11 0.54 321.74 0.29 321.31 0.2L321.31 0.2Q321.01-0.05 320.87-0.29 320.72-0.54 320.33-0.63L320.33-0.63Q320.23-0.78 320.11-0.95 319.99-1.12 319.89-1.32L319.89-1.32Q319.3-1.37 318.96-2.05L318.96-2.05Q319.06-2.34 319.23-2.49 319.4-2.64 319.3-3.03L319.3-3.03Q319.6-3.52 320.01-3.88 320.43-4.25 320.82-4.64L320.82-4.64Q321.26-5.03 321.62-5.44 321.99-5.86 322.43-6.25L322.43-6.25Q322.67-6.49 322.92-6.71 323.16-6.93 323.45-7.18L323.45-7.18Q323.99-7.71 324.55-8.18 325.11-8.64 325.7-9.18L325.7-9.18Q326.48-9.96 327.31-10.67 328.14-11.38 328.82-12.26L328.82-12.26Q328.78-12.45 328.68-12.52 328.58-12.6 328.53-12.74L328.53-12.74Q327.75-13.48 326.99-14.18 326.24-14.89 325.36-15.43L325.36-15.43Q325.07-15.72 324.97-15.92L324.97-15.92Q324.09-16.55 323.28-17.33 322.48-18.12 321.5-18.65L321.5-18.65Q321.31-18.9 321.04-19.07 320.77-19.24 320.52-19.38L320.52-19.38Q320.38-19.63 320.21-19.8 320.04-19.97 319.79-20.07L319.79-20.07Q319.4-20.41 319.28-20.63 319.16-20.85 318.86-20.9L318.86-20.9Q318.77-21.14 318.55-21.29 318.33-21.44 318.08-21.63L318.08-21.63Q317.99-21.92 317.79-22.12L317.79-22.12Q317.74-22.51 317.84-22.68 317.94-22.85 317.99-22.95L317.99-22.95Q317.94-23.24 317.72-23.39 317.5-23.54 317.5-23.88L317.5-23.88Q317.5-24.07 317.62-24.15 317.74-24.22 317.79-24.37L317.79-24.37 317.94-25.1Q318.33-25.39 318.6-25.81 318.86-26.22 319.3-26.46L319.3-26.46Q319.79-27.2 320.52-27.69L320.52-27.69Q320.77-28.08 321.13-28.32 321.5-28.56 321.74-28.96L321.74-28.96Q322.14-29.2 322.4-29.49 322.67-29.79 323.06-30.03L323.06-30.03Q323.16-30.22 323.28-30.35 323.41-30.47 323.45-30.62L323.45-30.62Q324.77-31.88 325.77-32.81 326.77-33.74 327.85-34.67L327.85-34.67Q328.14-34.91 328.43-35.21 328.73-35.5 329.07-35.74L329.07-35.74Q329.17-35.84 329.31-35.84 329.46-35.84 329.61-35.94L329.61-35.94Q330.19-35.94 330.24-35.99Z" opacity="1" transform="matrix(1,0,0,1,0,0)" fill="#f9f205" class="undefined-text-1" data-fill-palette-color="secondary" id="text-1"></path></svg></g></svg></g></svg></g></svg></g><g></g></svg></g></svg></g></svg></g></svg></g><defs></defs></svg><rect width="320" height="360" fill="none" stroke="none" visibility="hidden"></rect></g></svg></g></svg>